%TF.GenerationSoftware,KiCad,Pcbnew,(6.0.11)*%
%TF.CreationDate,2023-02-09T14:50:47+00:00*%
%TF.ProjectId,mppt charger,6d707074-2063-4686-9172-6765722e6b69,rev?*%
%TF.SameCoordinates,Original*%
%TF.FileFunction,Copper,L2,Bot*%
%TF.FilePolarity,Positive*%
%FSLAX46Y46*%
G04 Gerber Fmt 4.6, Leading zero omitted, Abs format (unit mm)*
G04 Created by KiCad (PCBNEW (6.0.11)) date 2023-02-09 14:50:47*
%MOMM*%
%LPD*%
G01*
G04 APERTURE LIST*
G04 Aperture macros list*
%AMRoundRect*
0 Rectangle with rounded corners*
0 $1 Rounding radius*
0 $2 $3 $4 $5 $6 $7 $8 $9 X,Y pos of 4 corners*
0 Add a 4 corners polygon primitive as box body*
4,1,4,$2,$3,$4,$5,$6,$7,$8,$9,$2,$3,0*
0 Add four circle primitives for the rounded corners*
1,1,$1+$1,$2,$3*
1,1,$1+$1,$4,$5*
1,1,$1+$1,$6,$7*
1,1,$1+$1,$8,$9*
0 Add four rect primitives between the rounded corners*
20,1,$1+$1,$2,$3,$4,$5,0*
20,1,$1+$1,$4,$5,$6,$7,0*
20,1,$1+$1,$6,$7,$8,$9,0*
20,1,$1+$1,$8,$9,$2,$3,0*%
G04 Aperture macros list end*
%TA.AperFunction,ComponentPad*%
%ADD10RoundRect,0.575000X0.575000X0.575000X-0.575000X0.575000X-0.575000X-0.575000X0.575000X-0.575000X0*%
%TD*%
%TA.AperFunction,ComponentPad*%
%ADD11C,2.300000*%
%TD*%
%TA.AperFunction,ComponentPad*%
%ADD12R,1.600000X1.600000*%
%TD*%
%TA.AperFunction,ComponentPad*%
%ADD13O,1.600000X1.600000*%
%TD*%
%TA.AperFunction,ComponentPad*%
%ADD14R,1.676400X1.676400*%
%TD*%
%TA.AperFunction,ComponentPad*%
%ADD15C,1.676400*%
%TD*%
%TA.AperFunction,ComponentPad*%
%ADD16C,1.600000*%
%TD*%
%TA.AperFunction,ComponentPad*%
%ADD17C,2.000000*%
%TD*%
%TA.AperFunction,ComponentPad*%
%ADD18C,3.600000*%
%TD*%
%TA.AperFunction,ComponentPad*%
%ADD19R,3.200000X3.200000*%
%TD*%
%TA.AperFunction,ComponentPad*%
%ADD20O,3.200000X3.200000*%
%TD*%
%TA.AperFunction,ComponentPad*%
%ADD21R,1.275000X1.800000*%
%TD*%
%TA.AperFunction,ComponentPad*%
%ADD22O,1.275000X1.800000*%
%TD*%
%TA.AperFunction,ComponentPad*%
%ADD23R,3.000000X3.000000*%
%TD*%
%TA.AperFunction,ComponentPad*%
%ADD24C,3.000000*%
%TD*%
G04 APERTURE END LIST*
D10*
%TO.P,F1,1*%
%TO.N,+BATT*%
X132050000Y-47000000D03*
X137250000Y-47000000D03*
D11*
%TO.P,F1,2*%
%TO.N,Vout*%
X121950000Y-47000000D03*
X116750000Y-47000000D03*
%TD*%
D12*
%TO.P,U4,1,NC*%
%TO.N,unconnected-(U4-Pad1)*%
X130820000Y-74940000D03*
D13*
%TO.P,U4,2,-*%
%TO.N,Net-(R2-Pad2)*%
X130820000Y-77480000D03*
%TO.P,U4,3,+*%
%TO.N,-BATT*%
X130820000Y-80020000D03*
%TO.P,U4,4,V-*%
%TO.N,GND*%
X130820000Y-82560000D03*
%TO.P,U4,5,NC*%
%TO.N,unconnected-(U4-Pad5)*%
X138440000Y-82560000D03*
%TO.P,U4,6*%
%TO.N,Net-(Rf1-Pad1)*%
X138440000Y-80020000D03*
%TO.P,U4,7,V+*%
%TO.N,+3.3V*%
X138440000Y-77480000D03*
%TO.P,U4,8,NC*%
%TO.N,unconnected-(U4-Pad8)*%
X138440000Y-74940000D03*
%TD*%
D14*
%TO.P,U2,1,~INC*%
%TO.N,Net-(U2-Pad1)*%
X76200000Y-57150000D03*
D15*
%TO.P,U2,2,U/~D*%
%TO.N,Net-(U2-Pad2)*%
X76200000Y-59690000D03*
%TO.P,U2,3,VH/RH*%
%TO.N,Net-(Rpot1-Pad2)*%
X76200000Y-62230000D03*
%TO.P,U2,4,VSS*%
%TO.N,GND*%
X76200000Y-64770000D03*
%TO.P,U2,5,VW/RW*%
%TO.N,Net-(U1-Pad4)*%
X83820000Y-64770000D03*
%TO.P,U2,6,VL/RL*%
%TO.N,Net-(Rpot2-Pad2)*%
X83820000Y-62230000D03*
%TO.P,U2,7,~CS*%
%TO.N,Net-(U2-Pad7)*%
X83820000Y-59690000D03*
%TO.P,U2,8,VCC*%
%TO.N,+3.3V*%
X83820000Y-57150000D03*
%TD*%
D16*
%TO.P,9k1,1*%
%TO.N,VinSense*%
X133096000Y-64770000D03*
D13*
%TO.P,9k1,2*%
%TO.N,Net-(Cin1-Pad1)*%
X122936000Y-64770000D03*
%TD*%
D16*
%TO.P,Rf1,1*%
%TO.N,Net-(Rf1-Pad1)*%
X121920000Y-71120000D03*
D13*
%TO.P,Rf1,2*%
%TO.N,Net-(R2-Pad2)*%
X132080000Y-71120000D03*
%TD*%
D17*
%TO.P,H1,1,1*%
%TO.N,-BATT*%
X146000000Y-75000000D03*
%TD*%
D18*
%TO.P,L1,1,1*%
%TO.N,Net-(D1-Pad1)*%
X65405000Y-64135000D03*
%TO.P,L1,2,2*%
%TO.N,Vout*%
X65405000Y-58555000D03*
%TD*%
D12*
%TO.P,Cin1,1*%
%TO.N,Net-(Cin1-Pad1)*%
X74930000Y-80010000D03*
D16*
%TO.P,Cin1,2*%
%TO.N,GND*%
X79930000Y-80010000D03*
%TD*%
%TO.P,1k3,1*%
%TO.N,GND*%
X123000000Y-59950000D03*
D13*
%TO.P,1k3,2*%
%TO.N,VinSense*%
X133160000Y-59950000D03*
%TD*%
D16*
%TO.P,Rshunt2,1*%
%TO.N,-BATT*%
X127000000Y-78720000D03*
D13*
%TO.P,Rshunt2,2*%
%TO.N,GND*%
X116840000Y-78720000D03*
%TD*%
D19*
%TO.P,D1,1,K*%
%TO.N,Net-(D1-Pad1)*%
X68580000Y-86360000D03*
D20*
%TO.P,D1,2,A*%
%TO.N,GND*%
X68580000Y-71120000D03*
%TD*%
D16*
%TO.P,1k8,1*%
%TO.N,Net-(R1-Pad1)*%
X119000000Y-61595000D03*
D13*
%TO.P,1k8,2*%
%TO.N,Vout*%
X119000000Y-51435000D03*
%TD*%
D16*
%TO.P,Rshunt1,1*%
%TO.N,-BATT*%
X127000000Y-74930000D03*
D13*
%TO.P,Rshunt1,2*%
%TO.N,GND*%
X116840000Y-74930000D03*
%TD*%
D16*
%TO.P,Rpot1,1*%
%TO.N,Vout*%
X74295000Y-47625000D03*
D13*
%TO.P,Rpot1,2*%
%TO.N,Net-(Rpot1-Pad2)*%
X84455000Y-47625000D03*
%TD*%
D21*
%TO.P,U1,1,VIN*%
%TO.N,Net-(Cin1-Pad1)*%
X76200000Y-73660000D03*
D22*
%TO.P,U1,2,OUT*%
%TO.N,Net-(D1-Pad1)*%
X77900000Y-73660000D03*
%TO.P,U1,3,GND*%
%TO.N,GND*%
X79600000Y-73660000D03*
%TO.P,U1,4,FB*%
%TO.N,Net-(U1-Pad4)*%
X81300000Y-73660000D03*
%TO.P,U1,5,~{ON}/OFF*%
%TO.N,Net-(U1-Pad5)*%
X83000000Y-73660000D03*
%TD*%
D16*
%TO.P,Rpot2,1*%
%TO.N,GND*%
X84455000Y-50800000D03*
D13*
%TO.P,Rpot2,2*%
%TO.N,Net-(Rpot2-Pad2)*%
X74295000Y-50800000D03*
%TD*%
D23*
%TO.P,Jout1,1,Pin_1*%
%TO.N,GND*%
X147000000Y-58000000D03*
D24*
%TO.P,Jout1,2,Pin_2*%
%TO.N,Vout*%
X147000000Y-52920000D03*
%TD*%
D16*
%TO.P,3k9,1*%
%TO.N,GND*%
X142240000Y-81080000D03*
D13*
%TO.P,3k9,2*%
%TO.N,Net-(R2-Pad2)*%
X142240000Y-70920000D03*
%TD*%
D23*
%TO.P,Jin1,1,Pin_1*%
%TO.N,Net-(Cin1-Pad1)*%
X60960000Y-82550000D03*
D24*
%TO.P,Jin1,2,Pin_2*%
%TO.N,GND*%
X60960000Y-87630000D03*
%TD*%
D17*
%TO.P,Cout1,1*%
%TO.N,Vout*%
X80645000Y-36195000D03*
%TO.P,Cout1,2*%
%TO.N,GND*%
X73145000Y-36195000D03*
%TD*%
D16*
%TO.P,8k2,1*%
%TO.N,GND*%
X115250000Y-69080000D03*
D13*
%TO.P,8k2,2*%
%TO.N,Net-(R1-Pad1)*%
X115250000Y-58920000D03*
%TD*%
D17*
%TO.P,H2,1,1*%
%TO.N,+BATT*%
X56000000Y-40000000D03*
%TD*%
M02*
