%TF.GenerationSoftware,KiCad,Pcbnew,(6.0.11)*%
%TF.CreationDate,2023-02-09T14:50:47+00:00*%
%TF.ProjectId,mppt charger,6d707074-2063-4686-9172-6765722e6b69,rev?*%
%TF.SameCoordinates,Original*%
%TF.FileFunction,Soldermask,Bot*%
%TF.FilePolarity,Negative*%
%FSLAX46Y46*%
G04 Gerber Fmt 4.6, Leading zero omitted, Abs format (unit mm)*
G04 Created by KiCad (PCBNEW (6.0.11)) date 2023-02-09 14:50:47*
%MOMM*%
%LPD*%
G01*
G04 APERTURE LIST*
G04 Aperture macros list*
%AMRoundRect*
0 Rectangle with rounded corners*
0 $1 Rounding radius*
0 $2 $3 $4 $5 $6 $7 $8 $9 X,Y pos of 4 corners*
0 Add a 4 corners polygon primitive as box body*
4,1,4,$2,$3,$4,$5,$6,$7,$8,$9,$2,$3,0*
0 Add four circle primitives for the rounded corners*
1,1,$1+$1,$2,$3*
1,1,$1+$1,$4,$5*
1,1,$1+$1,$6,$7*
1,1,$1+$1,$8,$9*
0 Add four rect primitives between the rounded corners*
20,1,$1+$1,$2,$3,$4,$5,0*
20,1,$1+$1,$4,$5,$6,$7,0*
20,1,$1+$1,$6,$7,$8,$9,0*
20,1,$1+$1,$8,$9,$2,$3,0*%
G04 Aperture macros list end*
%ADD10RoundRect,0.575000X0.575000X0.575000X-0.575000X0.575000X-0.575000X-0.575000X0.575000X-0.575000X0*%
%ADD11C,2.300000*%
%ADD12R,1.600000X1.600000*%
%ADD13O,1.600000X1.600000*%
%ADD14R,1.676400X1.676400*%
%ADD15C,1.676400*%
%ADD16C,1.600000*%
%ADD17C,3.200000*%
%ADD18C,2.000000*%
%ADD19C,3.600000*%
%ADD20R,3.200000X3.200000*%
%ADD21O,3.200000X3.200000*%
%ADD22R,1.275000X1.800000*%
%ADD23O,1.275000X1.800000*%
%ADD24R,3.000000X3.000000*%
%ADD25C,3.000000*%
G04 APERTURE END LIST*
D10*
%TO.C,F1*%
X132050000Y-47000000D03*
X137250000Y-47000000D03*
D11*
X121950000Y-47000000D03*
X116750000Y-47000000D03*
%TD*%
D12*
%TO.C,U4*%
X130820000Y-74940000D03*
D13*
X130820000Y-77480000D03*
X130820000Y-80020000D03*
X130820000Y-82560000D03*
X138440000Y-82560000D03*
X138440000Y-80020000D03*
X138440000Y-77480000D03*
X138440000Y-74940000D03*
%TD*%
D14*
%TO.C,U2*%
X76200000Y-57150000D03*
D15*
X76200000Y-59690000D03*
X76200000Y-62230000D03*
X76200000Y-64770000D03*
X83820000Y-64770000D03*
X83820000Y-62230000D03*
X83820000Y-59690000D03*
X83820000Y-57150000D03*
%TD*%
D16*
%TO.C,9k1*%
X133096000Y-64770000D03*
D13*
X122936000Y-64770000D03*
%TD*%
D17*
%TO.C,REF\u002A\u002A*%
X146000000Y-85000000D03*
%TD*%
%TO.C,REF\u002A\u002A*%
X56000000Y-35000000D03*
%TD*%
D16*
%TO.C,Rf1*%
X121920000Y-71120000D03*
D13*
X132080000Y-71120000D03*
%TD*%
D18*
%TO.C,H1*%
X146000000Y-75000000D03*
%TD*%
D19*
%TO.C,L1*%
X65405000Y-64135000D03*
X65405000Y-58555000D03*
%TD*%
D12*
%TO.C,Cin1*%
X74930000Y-80010000D03*
D16*
X79930000Y-80010000D03*
%TD*%
D17*
%TO.C,REF\u002A\u002A*%
X56000000Y-75000000D03*
%TD*%
D16*
%TO.C,1k3*%
X123000000Y-59950000D03*
D13*
X133160000Y-59950000D03*
%TD*%
D16*
%TO.C,Rshunt2*%
X127000000Y-78720000D03*
D13*
X116840000Y-78720000D03*
%TD*%
D20*
%TO.C,D1*%
X68580000Y-86360000D03*
D21*
X68580000Y-71120000D03*
%TD*%
D16*
%TO.C,1k8*%
X119000000Y-61595000D03*
D13*
X119000000Y-51435000D03*
%TD*%
D17*
%TO.C,REF\u002A\u002A*%
X146000000Y-35000000D03*
%TD*%
D16*
%TO.C,Rshunt1*%
X127000000Y-74930000D03*
D13*
X116840000Y-74930000D03*
%TD*%
D16*
%TO.C,Rpot1*%
X74295000Y-47625000D03*
D13*
X84455000Y-47625000D03*
%TD*%
D22*
%TO.C,U1*%
X76200000Y-73660000D03*
D23*
X77900000Y-73660000D03*
X79600000Y-73660000D03*
X81300000Y-73660000D03*
X83000000Y-73660000D03*
%TD*%
D16*
%TO.C,Rpot2*%
X84455000Y-50800000D03*
D13*
X74295000Y-50800000D03*
%TD*%
D24*
%TO.C,Jout1*%
X147000000Y-58000000D03*
D25*
X147000000Y-52920000D03*
%TD*%
D16*
%TO.C,3k9*%
X142240000Y-81080000D03*
D13*
X142240000Y-70920000D03*
%TD*%
D24*
%TO.C,Jin1*%
X60960000Y-82550000D03*
D25*
X60960000Y-87630000D03*
%TD*%
D18*
%TO.C,Cout1*%
X80645000Y-36195000D03*
X73145000Y-36195000D03*
%TD*%
D16*
%TO.C,8k2*%
X115250000Y-69080000D03*
D13*
X115250000Y-58920000D03*
%TD*%
D18*
%TO.C,H2*%
X56000000Y-40000000D03*
%TD*%
M02*
