%TF.GenerationSoftware,KiCad,Pcbnew,(6.0.11)*%
%TF.CreationDate,2023-02-08T18:45:32+00:00*%
%TF.ProjectId,new schematics,6e657720-7363-4686-956d-61746963732e,rev?*%
%TF.SameCoordinates,Original*%
%TF.FileFunction,Legend,Top*%
%TF.FilePolarity,Positive*%
%FSLAX46Y46*%
G04 Gerber Fmt 4.6, Leading zero omitted, Abs format (unit mm)*
G04 Created by KiCad (PCBNEW (6.0.11)) date 2023-02-08 18:45:32*
%MOMM*%
%LPD*%
G01*
G04 APERTURE LIST*
%ADD10C,0.150000*%
%ADD11C,0.152400*%
%ADD12C,0.120000*%
%ADD13C,0.200000*%
%ADD14C,0.127000*%
G04 APERTURE END LIST*
D10*
X117562380Y-56641904D02*
X117562380Y-56022857D01*
X117943333Y-56356190D01*
X117943333Y-56213333D01*
X117990952Y-56118095D01*
X118038571Y-56070476D01*
X118133809Y-56022857D01*
X118371904Y-56022857D01*
X118467142Y-56070476D01*
X118514761Y-56118095D01*
X118562380Y-56213333D01*
X118562380Y-56499047D01*
X118514761Y-56594285D01*
X118467142Y-56641904D01*
X118276666Y-55641904D02*
X118276666Y-55165714D01*
X118562380Y-55737142D02*
X117562380Y-55403809D01*
X118562380Y-55070476D01*
X126023809Y-71000952D02*
X125928571Y-70953333D01*
X125880952Y-70905714D01*
X125833333Y-70810476D01*
X125833333Y-70762857D01*
X125880952Y-70667619D01*
X125928571Y-70620000D01*
X126023809Y-70572380D01*
X126214285Y-70572380D01*
X126309523Y-70620000D01*
X126357142Y-70667619D01*
X126404761Y-70762857D01*
X126404761Y-70810476D01*
X126357142Y-70905714D01*
X126309523Y-70953333D01*
X126214285Y-71000952D01*
X126023809Y-71000952D01*
X125928571Y-71048571D01*
X125880952Y-71096190D01*
X125833333Y-71191428D01*
X125833333Y-71381904D01*
X125880952Y-71477142D01*
X125928571Y-71524761D01*
X126023809Y-71572380D01*
X126214285Y-71572380D01*
X126309523Y-71524761D01*
X126357142Y-71477142D01*
X126404761Y-71381904D01*
X126404761Y-71191428D01*
X126357142Y-71096190D01*
X126309523Y-71048571D01*
X126214285Y-71000952D01*
X126785714Y-70667619D02*
X126833333Y-70620000D01*
X126928571Y-70572380D01*
X127166666Y-70572380D01*
X127261904Y-70620000D01*
X127309523Y-70667619D01*
X127357142Y-70762857D01*
X127357142Y-70858095D01*
X127309523Y-71000952D01*
X126738095Y-71572380D01*
X127357142Y-71572380D01*
X127785714Y-71572380D02*
X127785714Y-70572380D01*
X127880952Y-71191428D02*
X128166666Y-71572380D01*
X128166666Y-70905714D02*
X127785714Y-71286666D01*
%TO.C,mcp601*%
X80752631Y-65454873D02*
X79658227Y-65454873D01*
X79814570Y-65454873D02*
X79736399Y-65376701D01*
X79658227Y-65220358D01*
X79658227Y-64985843D01*
X79736399Y-64829499D01*
X79892742Y-64751328D01*
X80752631Y-64751328D01*
X79892742Y-64751328D02*
X79736399Y-64673156D01*
X79658227Y-64516813D01*
X79658227Y-64282297D01*
X79736399Y-64125954D01*
X79892742Y-64047782D01*
X80752631Y-64047782D01*
X80674459Y-62562520D02*
X80752631Y-62718863D01*
X80752631Y-63031550D01*
X80674459Y-63187893D01*
X80596287Y-63266065D01*
X80439944Y-63344237D01*
X79970914Y-63344237D01*
X79814570Y-63266065D01*
X79736399Y-63187893D01*
X79658227Y-63031550D01*
X79658227Y-62718863D01*
X79736399Y-62562520D01*
X79658227Y-61858974D02*
X81299833Y-61858974D01*
X79736399Y-61858974D02*
X79658227Y-61702631D01*
X79658227Y-61389944D01*
X79736399Y-61233601D01*
X79814570Y-61155429D01*
X79970914Y-61077257D01*
X80439944Y-61077257D01*
X80596287Y-61155429D01*
X80674459Y-61233601D01*
X80752631Y-61389944D01*
X80752631Y-61702631D01*
X80674459Y-61858974D01*
X79111025Y-59670166D02*
X79111025Y-59982853D01*
X79189197Y-60139197D01*
X79267368Y-60217368D01*
X79501883Y-60373712D01*
X79814570Y-60451883D01*
X80439944Y-60451883D01*
X80596287Y-60373712D01*
X80674459Y-60295540D01*
X80752631Y-60139197D01*
X80752631Y-59826510D01*
X80674459Y-59670166D01*
X80596287Y-59591995D01*
X80439944Y-59513823D01*
X80049085Y-59513823D01*
X79892742Y-59591995D01*
X79814570Y-59670166D01*
X79736399Y-59826510D01*
X79736399Y-60139197D01*
X79814570Y-60295540D01*
X79892742Y-60373712D01*
X80049085Y-60451883D01*
X79111025Y-58497591D02*
X79111025Y-58341247D01*
X79189197Y-58184904D01*
X79267368Y-58106732D01*
X79423712Y-58028560D01*
X79736399Y-57950389D01*
X80127257Y-57950389D01*
X80439944Y-58028560D01*
X80596287Y-58106732D01*
X80674459Y-58184904D01*
X80752631Y-58341247D01*
X80752631Y-58497591D01*
X80674459Y-58653934D01*
X80596287Y-58732106D01*
X80439944Y-58810277D01*
X80127257Y-58888449D01*
X79736399Y-58888449D01*
X79423712Y-58810277D01*
X79267368Y-58732106D01*
X79189197Y-58653934D01*
X79111025Y-58497591D01*
X80752631Y-56386954D02*
X80752631Y-57325015D01*
X80752631Y-56855985D02*
X79111025Y-56855985D01*
X79345540Y-57012328D01*
X79501883Y-57168671D01*
X79580055Y-57325015D01*
%TO.C,Jout1*%
X134072380Y-62483809D02*
X134786666Y-62483809D01*
X134929523Y-62531428D01*
X135024761Y-62626666D01*
X135072380Y-62769523D01*
X135072380Y-62864761D01*
X135072380Y-61864761D02*
X135024761Y-61960000D01*
X134977142Y-62007619D01*
X134881904Y-62055238D01*
X134596190Y-62055238D01*
X134500952Y-62007619D01*
X134453333Y-61960000D01*
X134405714Y-61864761D01*
X134405714Y-61721904D01*
X134453333Y-61626666D01*
X134500952Y-61579047D01*
X134596190Y-61531428D01*
X134881904Y-61531428D01*
X134977142Y-61579047D01*
X135024761Y-61626666D01*
X135072380Y-61721904D01*
X135072380Y-61864761D01*
X134405714Y-60674285D02*
X135072380Y-60674285D01*
X134405714Y-61102857D02*
X134929523Y-61102857D01*
X135024761Y-61055238D01*
X135072380Y-60960000D01*
X135072380Y-60817142D01*
X135024761Y-60721904D01*
X134977142Y-60674285D01*
X134405714Y-60340952D02*
X134405714Y-59960000D01*
X134072380Y-60198095D02*
X134929523Y-60198095D01*
X135024761Y-60150476D01*
X135072380Y-60055238D01*
X135072380Y-59960000D01*
X135072380Y-59102857D02*
X135072380Y-59674285D01*
X135072380Y-59388571D02*
X134072380Y-59388571D01*
X134215238Y-59483809D01*
X134310476Y-59579047D01*
X134358095Y-59674285D01*
%TO.C,X9c103*%
X134072380Y-81406666D02*
X135072380Y-80740000D01*
X134072380Y-80740000D02*
X135072380Y-81406666D01*
X135072380Y-80311428D02*
X135072380Y-80120952D01*
X135024761Y-80025714D01*
X134977142Y-79978095D01*
X134834285Y-79882857D01*
X134643809Y-79835238D01*
X134262857Y-79835238D01*
X134167619Y-79882857D01*
X134120000Y-79930476D01*
X134072380Y-80025714D01*
X134072380Y-80216190D01*
X134120000Y-80311428D01*
X134167619Y-80359047D01*
X134262857Y-80406666D01*
X134500952Y-80406666D01*
X134596190Y-80359047D01*
X134643809Y-80311428D01*
X134691428Y-80216190D01*
X134691428Y-80025714D01*
X134643809Y-79930476D01*
X134596190Y-79882857D01*
X134500952Y-79835238D01*
X135024761Y-78978095D02*
X135072380Y-79073333D01*
X135072380Y-79263809D01*
X135024761Y-79359047D01*
X134977142Y-79406666D01*
X134881904Y-79454285D01*
X134596190Y-79454285D01*
X134500952Y-79406666D01*
X134453333Y-79359047D01*
X134405714Y-79263809D01*
X134405714Y-79073333D01*
X134453333Y-78978095D01*
X135072380Y-78025714D02*
X135072380Y-78597142D01*
X135072380Y-78311428D02*
X134072380Y-78311428D01*
X134215238Y-78406666D01*
X134310476Y-78501904D01*
X134358095Y-78597142D01*
X134072380Y-77406666D02*
X134072380Y-77311428D01*
X134120000Y-77216190D01*
X134167619Y-77168571D01*
X134262857Y-77120952D01*
X134453333Y-77073333D01*
X134691428Y-77073333D01*
X134881904Y-77120952D01*
X134977142Y-77168571D01*
X135024761Y-77216190D01*
X135072380Y-77311428D01*
X135072380Y-77406666D01*
X135024761Y-77501904D01*
X134977142Y-77549523D01*
X134881904Y-77597142D01*
X134691428Y-77644761D01*
X134453333Y-77644761D01*
X134262857Y-77597142D01*
X134167619Y-77549523D01*
X134120000Y-77501904D01*
X134072380Y-77406666D01*
X134072380Y-76740000D02*
X134072380Y-76120952D01*
X134453333Y-76454285D01*
X134453333Y-76311428D01*
X134500952Y-76216190D01*
X134548571Y-76168571D01*
X134643809Y-76120952D01*
X134881904Y-76120952D01*
X134977142Y-76168571D01*
X135024761Y-76216190D01*
X135072380Y-76311428D01*
X135072380Y-76597142D01*
X135024761Y-76692380D01*
X134977142Y-76740000D01*
%TO.C,0R1*%
X120896190Y-78172380D02*
X120991428Y-78172380D01*
X121086666Y-78220000D01*
X121134285Y-78267619D01*
X121181904Y-78362857D01*
X121229523Y-78553333D01*
X121229523Y-78791428D01*
X121181904Y-78981904D01*
X121134285Y-79077142D01*
X121086666Y-79124761D01*
X120991428Y-79172380D01*
X120896190Y-79172380D01*
X120800952Y-79124761D01*
X120753333Y-79077142D01*
X120705714Y-78981904D01*
X120658095Y-78791428D01*
X120658095Y-78553333D01*
X120705714Y-78362857D01*
X120753333Y-78267619D01*
X120800952Y-78220000D01*
X120896190Y-78172380D01*
X122229523Y-79172380D02*
X121896190Y-78696190D01*
X121658095Y-79172380D02*
X121658095Y-78172380D01*
X122039047Y-78172380D01*
X122134285Y-78220000D01*
X122181904Y-78267619D01*
X122229523Y-78362857D01*
X122229523Y-78505714D01*
X122181904Y-78600952D01*
X122134285Y-78648571D01*
X122039047Y-78696190D01*
X121658095Y-78696190D01*
X123181904Y-79172380D02*
X122610476Y-79172380D01*
X122896190Y-79172380D02*
X122896190Y-78172380D01*
X122800952Y-78315238D01*
X122705714Y-78410476D01*
X122610476Y-78458095D01*
X120896190Y-74382380D02*
X120991428Y-74382380D01*
X121086666Y-74430000D01*
X121134285Y-74477619D01*
X121181904Y-74572857D01*
X121229523Y-74763333D01*
X121229523Y-75001428D01*
X121181904Y-75191904D01*
X121134285Y-75287142D01*
X121086666Y-75334761D01*
X120991428Y-75382380D01*
X120896190Y-75382380D01*
X120800952Y-75334761D01*
X120753333Y-75287142D01*
X120705714Y-75191904D01*
X120658095Y-75001428D01*
X120658095Y-74763333D01*
X120705714Y-74572857D01*
X120753333Y-74477619D01*
X120800952Y-74430000D01*
X120896190Y-74382380D01*
X122229523Y-75382380D02*
X121896190Y-74906190D01*
X121658095Y-75382380D02*
X121658095Y-74382380D01*
X122039047Y-74382380D01*
X122134285Y-74430000D01*
X122181904Y-74477619D01*
X122229523Y-74572857D01*
X122229523Y-74715714D01*
X122181904Y-74810952D01*
X122134285Y-74858571D01*
X122039047Y-74906190D01*
X121658095Y-74906190D01*
X123181904Y-75382380D02*
X122610476Y-75382380D01*
X122896190Y-75382380D02*
X122896190Y-74382380D01*
X122800952Y-74525238D01*
X122705714Y-74620476D01*
X122610476Y-74668095D01*
%TO.C,3k9*%
X141692380Y-79954285D02*
X141692380Y-79335238D01*
X142073333Y-79668571D01*
X142073333Y-79525714D01*
X142120952Y-79430476D01*
X142168571Y-79382857D01*
X142263809Y-79335238D01*
X142501904Y-79335238D01*
X142597142Y-79382857D01*
X142644761Y-79430476D01*
X142692380Y-79525714D01*
X142692380Y-79811428D01*
X142644761Y-79906666D01*
X142597142Y-79954285D01*
X142692380Y-78906666D02*
X141692380Y-78906666D01*
X142311428Y-78811428D02*
X142692380Y-78525714D01*
X142025714Y-78525714D02*
X142406666Y-78906666D01*
X142692380Y-78049523D02*
X142692380Y-77859047D01*
X142644761Y-77763809D01*
X142597142Y-77716190D01*
X142454285Y-77620952D01*
X142263809Y-77573333D01*
X141882857Y-77573333D01*
X141787619Y-77620952D01*
X141740000Y-77668571D01*
X141692380Y-77763809D01*
X141692380Y-77954285D01*
X141740000Y-78049523D01*
X141787619Y-78097142D01*
X141882857Y-78144761D01*
X142120952Y-78144761D01*
X142216190Y-78097142D01*
X142263809Y-78049523D01*
X142311428Y-77954285D01*
X142311428Y-77763809D01*
X142263809Y-77668571D01*
X142216190Y-77620952D01*
X142120952Y-77573333D01*
%TO.C,Jin1*%
X76446190Y-87082380D02*
X76446190Y-87796666D01*
X76398571Y-87939523D01*
X76303333Y-88034761D01*
X76160476Y-88082380D01*
X76065238Y-88082380D01*
X76922380Y-88082380D02*
X76922380Y-87415714D01*
X76922380Y-87082380D02*
X76874761Y-87130000D01*
X76922380Y-87177619D01*
X76970000Y-87130000D01*
X76922380Y-87082380D01*
X76922380Y-87177619D01*
X77398571Y-87415714D02*
X77398571Y-88082380D01*
X77398571Y-87510952D02*
X77446190Y-87463333D01*
X77541428Y-87415714D01*
X77684285Y-87415714D01*
X77779523Y-87463333D01*
X77827142Y-87558571D01*
X77827142Y-88082380D01*
X78827142Y-88082380D02*
X78255714Y-88082380D01*
X78541428Y-88082380D02*
X78541428Y-87082380D01*
X78446190Y-87225238D01*
X78350952Y-87320476D01*
X78255714Y-87368095D01*
%TO.C,Pico*%
X98949047Y-45537380D02*
X98949047Y-44537380D01*
X99330000Y-44537380D01*
X99425238Y-44585000D01*
X99472857Y-44632619D01*
X99520476Y-44727857D01*
X99520476Y-44870714D01*
X99472857Y-44965952D01*
X99425238Y-45013571D01*
X99330000Y-45061190D01*
X98949047Y-45061190D01*
X99949047Y-45537380D02*
X99949047Y-44870714D01*
X99949047Y-44537380D02*
X99901428Y-44585000D01*
X99949047Y-44632619D01*
X99996666Y-44585000D01*
X99949047Y-44537380D01*
X99949047Y-44632619D01*
X100853809Y-45489761D02*
X100758571Y-45537380D01*
X100568095Y-45537380D01*
X100472857Y-45489761D01*
X100425238Y-45442142D01*
X100377619Y-45346904D01*
X100377619Y-45061190D01*
X100425238Y-44965952D01*
X100472857Y-44918333D01*
X100568095Y-44870714D01*
X100758571Y-44870714D01*
X100853809Y-44918333D01*
X101425238Y-45537380D02*
X101330000Y-45489761D01*
X101282380Y-45442142D01*
X101234761Y-45346904D01*
X101234761Y-45061190D01*
X101282380Y-44965952D01*
X101330000Y-44918333D01*
X101425238Y-44870714D01*
X101568095Y-44870714D01*
X101663333Y-44918333D01*
X101710952Y-44965952D01*
X101758571Y-45061190D01*
X101758571Y-45346904D01*
X101710952Y-45442142D01*
X101663333Y-45489761D01*
X101568095Y-45537380D01*
X101425238Y-45537380D01*
%TO.C,U1*%
X78838095Y-68842380D02*
X78838095Y-69651904D01*
X78885714Y-69747142D01*
X78933333Y-69794761D01*
X79028571Y-69842380D01*
X79219047Y-69842380D01*
X79314285Y-69794761D01*
X79361904Y-69747142D01*
X79409523Y-69651904D01*
X79409523Y-68842380D01*
X80409523Y-69842380D02*
X79838095Y-69842380D01*
X80123809Y-69842380D02*
X80123809Y-68842380D01*
X80028571Y-68985238D01*
X79933333Y-69080476D01*
X79838095Y-69128095D01*
%TO.C,10k*%
X78779761Y-51252380D02*
X78208333Y-51252380D01*
X78494047Y-51252380D02*
X78494047Y-50252380D01*
X78398809Y-50395238D01*
X78303571Y-50490476D01*
X78208333Y-50538095D01*
X79398809Y-50252380D02*
X79494047Y-50252380D01*
X79589285Y-50300000D01*
X79636904Y-50347619D01*
X79684523Y-50442857D01*
X79732142Y-50633333D01*
X79732142Y-50871428D01*
X79684523Y-51061904D01*
X79636904Y-51157142D01*
X79589285Y-51204761D01*
X79494047Y-51252380D01*
X79398809Y-51252380D01*
X79303571Y-51204761D01*
X79255952Y-51157142D01*
X79208333Y-51061904D01*
X79160714Y-50871428D01*
X79160714Y-50633333D01*
X79208333Y-50442857D01*
X79255952Y-50347619D01*
X79303571Y-50300000D01*
X79398809Y-50252380D01*
X80160714Y-51252380D02*
X80160714Y-50252380D01*
X80255952Y-50871428D02*
X80541666Y-51252380D01*
X80541666Y-50585714D02*
X80160714Y-50966666D01*
%TO.C,12k5*%
X78303571Y-48077380D02*
X77732142Y-48077380D01*
X78017857Y-48077380D02*
X78017857Y-47077380D01*
X77922619Y-47220238D01*
X77827380Y-47315476D01*
X77732142Y-47363095D01*
X78684523Y-47172619D02*
X78732142Y-47125000D01*
X78827380Y-47077380D01*
X79065476Y-47077380D01*
X79160714Y-47125000D01*
X79208333Y-47172619D01*
X79255952Y-47267857D01*
X79255952Y-47363095D01*
X79208333Y-47505952D01*
X78636904Y-48077380D01*
X79255952Y-48077380D01*
X79684523Y-48077380D02*
X79684523Y-47077380D01*
X79779761Y-47696428D02*
X80065476Y-48077380D01*
X80065476Y-47410714D02*
X79684523Y-47791666D01*
X80970238Y-47077380D02*
X80494047Y-47077380D01*
X80446428Y-47553571D01*
X80494047Y-47505952D01*
X80589285Y-47458333D01*
X80827380Y-47458333D01*
X80922619Y-47505952D01*
X80970238Y-47553571D01*
X81017857Y-47648809D01*
X81017857Y-47886904D01*
X80970238Y-47982142D01*
X80922619Y-48029761D01*
X80827380Y-48077380D01*
X80589285Y-48077380D01*
X80494047Y-48029761D01*
X80446428Y-47982142D01*
%TO.C,L1*%
X65238333Y-67637380D02*
X64762142Y-67637380D01*
X64762142Y-66637380D01*
X66095476Y-67637380D02*
X65524047Y-67637380D01*
X65809761Y-67637380D02*
X65809761Y-66637380D01*
X65714523Y-66780238D01*
X65619285Y-66875476D01*
X65524047Y-66923095D01*
%TO.C,F1*%
X114538571Y-56213333D02*
X114538571Y-56546666D01*
X115062380Y-56546666D02*
X114062380Y-56546666D01*
X114062380Y-56070476D01*
X115062380Y-55165714D02*
X115062380Y-55737142D01*
X115062380Y-55451428D02*
X114062380Y-55451428D01*
X114205238Y-55546666D01*
X114300476Y-55641904D01*
X114348095Y-55737142D01*
%TO.C,D1*%
X65312380Y-79478095D02*
X64312380Y-79478095D01*
X64312380Y-79240000D01*
X64360000Y-79097142D01*
X64455238Y-79001904D01*
X64550476Y-78954285D01*
X64740952Y-78906666D01*
X64883809Y-78906666D01*
X65074285Y-78954285D01*
X65169523Y-79001904D01*
X65264761Y-79097142D01*
X65312380Y-79240000D01*
X65312380Y-79478095D01*
X65312380Y-77954285D02*
X65312380Y-78525714D01*
X65312380Y-78240000D02*
X64312380Y-78240000D01*
X64455238Y-78335238D01*
X64550476Y-78430476D01*
X64598095Y-78525714D01*
X66432380Y-86621904D02*
X65432380Y-86621904D01*
X66432380Y-86050476D02*
X65860952Y-86479047D01*
X65432380Y-86050476D02*
X66003809Y-86621904D01*
%TO.C,Cout1*%
X67857857Y-29207142D02*
X67810238Y-29254761D01*
X67667380Y-29302380D01*
X67572142Y-29302380D01*
X67429285Y-29254761D01*
X67334047Y-29159523D01*
X67286428Y-29064285D01*
X67238809Y-28873809D01*
X67238809Y-28730952D01*
X67286428Y-28540476D01*
X67334047Y-28445238D01*
X67429285Y-28350000D01*
X67572142Y-28302380D01*
X67667380Y-28302380D01*
X67810238Y-28350000D01*
X67857857Y-28397619D01*
X68429285Y-29302380D02*
X68334047Y-29254761D01*
X68286428Y-29207142D01*
X68238809Y-29111904D01*
X68238809Y-28826190D01*
X68286428Y-28730952D01*
X68334047Y-28683333D01*
X68429285Y-28635714D01*
X68572142Y-28635714D01*
X68667380Y-28683333D01*
X68715000Y-28730952D01*
X68762619Y-28826190D01*
X68762619Y-29111904D01*
X68715000Y-29207142D01*
X68667380Y-29254761D01*
X68572142Y-29302380D01*
X68429285Y-29302380D01*
X69619761Y-28635714D02*
X69619761Y-29302380D01*
X69191190Y-28635714D02*
X69191190Y-29159523D01*
X69238809Y-29254761D01*
X69334047Y-29302380D01*
X69476904Y-29302380D01*
X69572142Y-29254761D01*
X69619761Y-29207142D01*
X69953095Y-28635714D02*
X70334047Y-28635714D01*
X70095952Y-28302380D02*
X70095952Y-29159523D01*
X70143571Y-29254761D01*
X70238809Y-29302380D01*
X70334047Y-29302380D01*
X71191190Y-29302380D02*
X70619761Y-29302380D01*
X70905476Y-29302380D02*
X70905476Y-28302380D01*
X70810238Y-28445238D01*
X70715000Y-28540476D01*
X70619761Y-28588095D01*
%TO.C,Cin1*%
X74707857Y-81637142D02*
X74660238Y-81684761D01*
X74517380Y-81732380D01*
X74422142Y-81732380D01*
X74279285Y-81684761D01*
X74184047Y-81589523D01*
X74136428Y-81494285D01*
X74088809Y-81303809D01*
X74088809Y-81160952D01*
X74136428Y-80970476D01*
X74184047Y-80875238D01*
X74279285Y-80780000D01*
X74422142Y-80732380D01*
X74517380Y-80732380D01*
X74660238Y-80780000D01*
X74707857Y-80827619D01*
X75136428Y-81732380D02*
X75136428Y-81065714D01*
X75136428Y-80732380D02*
X75088809Y-80780000D01*
X75136428Y-80827619D01*
X75184047Y-80780000D01*
X75136428Y-80732380D01*
X75136428Y-80827619D01*
X75612619Y-81065714D02*
X75612619Y-81732380D01*
X75612619Y-81160952D02*
X75660238Y-81113333D01*
X75755476Y-81065714D01*
X75898333Y-81065714D01*
X75993571Y-81113333D01*
X76041190Y-81208571D01*
X76041190Y-81732380D01*
X77041190Y-81732380D02*
X76469761Y-81732380D01*
X76755476Y-81732380D02*
X76755476Y-80732380D01*
X76660238Y-80875238D01*
X76565000Y-80970476D01*
X76469761Y-81018095D01*
D11*
%TO.C,mcp601*%
X76530200Y-66040000D02*
X83489800Y-66040000D01*
X83489800Y-55880000D02*
X80314800Y-55880000D01*
X80314800Y-55880000D02*
X79705200Y-55880000D01*
X79705200Y-55880000D02*
X77343000Y-55880000D01*
X79705200Y-55880000D02*
G75*
G03*
X80314800Y-55880000I304800J0D01*
G01*
D12*
%TO.C,Jout1*%
X133350000Y-55880000D02*
X125730000Y-55880000D01*
X125730000Y-66040000D02*
X133350000Y-66040000D01*
X127000000Y-66040000D02*
X127000000Y-55880000D01*
X125730000Y-55880000D02*
X125730000Y-66040000D01*
X133350000Y-66040000D02*
X133350000Y-55880000D01*
%TO.C,X9c103*%
X137280000Y-73610000D02*
X135630000Y-73610000D01*
X131980000Y-73610000D02*
X131980000Y-83890000D01*
X137280000Y-83890000D02*
X137280000Y-73610000D01*
X133630000Y-73610000D02*
X131980000Y-73610000D01*
X131980000Y-83890000D02*
X137280000Y-83890000D01*
X133630000Y-73610000D02*
G75*
G03*
X135630000Y-73610000I1000000J0D01*
G01*
%TO.C,0R1*%
X118650000Y-80090000D02*
X125190000Y-80090000D01*
X125190000Y-77350000D02*
X118650000Y-77350000D01*
X118650000Y-77350000D02*
X118650000Y-80090000D01*
X125190000Y-80090000D02*
X125190000Y-77350000D01*
X125960000Y-78720000D02*
X125190000Y-78720000D01*
X117880000Y-78720000D02*
X118650000Y-78720000D01*
X117880000Y-74930000D02*
X118650000Y-74930000D01*
X125960000Y-74930000D02*
X125190000Y-74930000D01*
X125190000Y-76300000D02*
X125190000Y-73560000D01*
X118650000Y-73560000D02*
X118650000Y-76300000D01*
X125190000Y-73560000D02*
X118650000Y-73560000D01*
X118650000Y-76300000D02*
X125190000Y-76300000D01*
%TO.C,Rf1*%
X131040000Y-71120000D02*
X130270000Y-71120000D01*
X122960000Y-71120000D02*
X123730000Y-71120000D01*
X123730000Y-69750000D02*
X123730000Y-72490000D01*
X130270000Y-72490000D02*
X130270000Y-69750000D01*
X123730000Y-72490000D02*
X130270000Y-72490000D01*
X130270000Y-69750000D02*
X123730000Y-69750000D01*
%TO.C,3k9*%
X142240000Y-74700000D02*
X142240000Y-75470000D01*
X142240000Y-82780000D02*
X142240000Y-82010000D01*
X140870000Y-82010000D02*
X143610000Y-82010000D01*
X143610000Y-75470000D02*
X140870000Y-75470000D01*
X143610000Y-82010000D02*
X143610000Y-75470000D01*
X140870000Y-75470000D02*
X140870000Y-82010000D01*
%TO.C,Jin1*%
X72390000Y-88900000D02*
X72390000Y-96520000D01*
X82550000Y-96520000D02*
X82550000Y-88900000D01*
X82550000Y-95250000D02*
X72390000Y-95250000D01*
X72390000Y-96520000D02*
X82550000Y-96520000D01*
X82550000Y-88900000D02*
X72390000Y-88900000D01*
D13*
%TO.C,Pico*%
X88240000Y-36830000D02*
G75*
G03*
X88240000Y-36830000I-100000J0D01*
G01*
D14*
X104330000Y-35460000D02*
X110830000Y-35460000D01*
X104330000Y-34160000D02*
X104330000Y-35460000D01*
X96330000Y-34160000D02*
X104330000Y-34160000D01*
X96330000Y-35460000D02*
X96330000Y-34160000D01*
X89830000Y-35460000D02*
X96330000Y-35460000D01*
X110830000Y-86460000D02*
X103990000Y-86460000D01*
X96670000Y-86460000D02*
X89830000Y-86460000D01*
X110830000Y-86460000D02*
X110830000Y-86210000D01*
X110830000Y-35460000D02*
X110830000Y-35710000D01*
X89830000Y-86460000D02*
X89830000Y-86210000D01*
X89830000Y-35710000D02*
X89830000Y-35460000D01*
D12*
%TO.C,U1*%
X81450000Y-70390000D02*
X81450000Y-71900000D01*
X74479000Y-70390000D02*
X84720000Y-70390000D01*
X74479000Y-71900000D02*
X84720000Y-71900000D01*
X74479000Y-75031000D02*
X84720000Y-75031000D01*
X74479000Y-70390000D02*
X74479000Y-75031000D01*
X84720000Y-70390000D02*
X84720000Y-75031000D01*
X77750000Y-70390000D02*
X77750000Y-71900000D01*
%TO.C,10k*%
X75335000Y-50800000D02*
X76105000Y-50800000D01*
X83415000Y-50800000D02*
X82645000Y-50800000D01*
X82645000Y-52170000D02*
X82645000Y-49430000D01*
X76105000Y-49430000D02*
X76105000Y-52170000D01*
X82645000Y-49430000D02*
X76105000Y-49430000D01*
X76105000Y-52170000D02*
X82645000Y-52170000D01*
%TO.C,12k5*%
X82645000Y-46255000D02*
X76105000Y-46255000D01*
X76105000Y-48995000D02*
X82645000Y-48995000D01*
X82645000Y-48995000D02*
X82645000Y-46255000D01*
X76105000Y-46255000D02*
X76105000Y-48995000D01*
X75335000Y-47625000D02*
X76105000Y-47625000D01*
X83415000Y-47625000D02*
X82645000Y-47625000D01*
%TO.C,L1*%
X64040000Y-56905000D02*
X57920000Y-56905000D01*
X72890000Y-65785000D02*
X66770000Y-65785000D01*
X72890000Y-56905000D02*
X66770000Y-56905000D01*
X57920000Y-65785000D02*
X57920000Y-56905000D01*
X72890000Y-65785000D02*
X72890000Y-56905000D01*
X64040000Y-65785000D02*
X57920000Y-65785000D01*
%TO.C,F1*%
X116910000Y-46230000D02*
X115510000Y-46230000D01*
X120710000Y-65530000D02*
X119710000Y-65530000D01*
X120610000Y-50230000D02*
X120610000Y-61530000D01*
X120710000Y-61530000D02*
X119710000Y-61530000D01*
X115510000Y-46230000D02*
X115510000Y-50230000D01*
X120710000Y-61530000D02*
X120710000Y-65530000D01*
X115610000Y-50230000D02*
X115610000Y-61530000D01*
X115510000Y-61530000D02*
X116510000Y-61530000D01*
X120710000Y-50230000D02*
X119310000Y-50230000D01*
X115510000Y-50230000D02*
X116910000Y-50230000D01*
X115510000Y-61530000D02*
X115510000Y-65530000D01*
X120710000Y-50230000D02*
X120710000Y-46230000D01*
X119310000Y-46230000D02*
X120710000Y-46230000D01*
X115510000Y-65530000D02*
X116510000Y-65530000D01*
%TO.C,D1*%
X65860000Y-82065000D02*
X71300000Y-82065000D01*
X71300000Y-73870000D02*
X65860000Y-73870000D01*
X65860000Y-83610000D02*
X71300000Y-83610000D01*
X65860000Y-81945000D02*
X71300000Y-81945000D01*
X65860000Y-73870000D02*
X65860000Y-83610000D01*
X68580000Y-72960000D02*
X68580000Y-73870000D01*
X65860000Y-82185000D02*
X71300000Y-82185000D01*
X68580000Y-84520000D02*
X68580000Y-83610000D01*
X71300000Y-83610000D02*
X71300000Y-73870000D01*
%TO.C,Cout1*%
X77335000Y-38100000D02*
G75*
G03*
X77335000Y-38100000I-8120000J0D01*
G01*
%TO.C,Cin1*%
X78391000Y-76043000D02*
X78391000Y-83977000D01*
X81231000Y-78458000D02*
X81231000Y-81562000D01*
X80911000Y-77844000D02*
X80911000Y-78970000D01*
X79111000Y-81050000D02*
X79111000Y-83732000D01*
X80271000Y-77065000D02*
X80271000Y-78970000D01*
X78231000Y-76008000D02*
X78231000Y-84012000D01*
X79431000Y-81050000D02*
X79431000Y-83572000D01*
X78431000Y-76053000D02*
X78431000Y-83967000D01*
X79671000Y-81050000D02*
X79671000Y-83428000D01*
X78911000Y-76205000D02*
X78911000Y-78970000D01*
X80031000Y-81050000D02*
X80031000Y-83166000D01*
X81271000Y-78557000D02*
X81271000Y-81463000D01*
X78271000Y-76016000D02*
X78271000Y-84004000D01*
X77670000Y-75936000D02*
X77670000Y-84084000D01*
X81031000Y-78046000D02*
X81031000Y-81974000D01*
X77910000Y-75958000D02*
X77910000Y-84062000D01*
X80511000Y-81050000D02*
X80511000Y-82707000D01*
X80631000Y-81050000D02*
X80631000Y-82566000D01*
X81511000Y-79477000D02*
X81511000Y-80543000D01*
X80311000Y-81050000D02*
X80311000Y-82917000D01*
X79751000Y-81050000D02*
X79751000Y-83375000D01*
X77870000Y-75953000D02*
X77870000Y-84067000D01*
X77510000Y-75930000D02*
X77510000Y-84090000D01*
X79791000Y-81050000D02*
X79791000Y-83348000D01*
X79471000Y-76470000D02*
X79471000Y-78970000D01*
X80551000Y-77359000D02*
X80551000Y-78970000D01*
X80831000Y-77723000D02*
X80831000Y-78970000D01*
X80631000Y-77454000D02*
X80631000Y-78970000D01*
X79671000Y-76592000D02*
X79671000Y-78970000D01*
X80111000Y-81050000D02*
X80111000Y-83100000D01*
X80471000Y-77269000D02*
X80471000Y-78970000D01*
X78911000Y-81050000D02*
X78911000Y-83815000D01*
X81351000Y-78781000D02*
X81351000Y-81239000D01*
X78631000Y-76108000D02*
X78631000Y-83912000D01*
X79151000Y-76306000D02*
X79151000Y-78970000D01*
X80031000Y-76854000D02*
X80031000Y-78970000D01*
X73020302Y-77695000D02*
X73820302Y-77695000D01*
X78311000Y-76025000D02*
X78311000Y-83995000D01*
X78711000Y-76133000D02*
X78711000Y-83887000D01*
X78070000Y-75980000D02*
X78070000Y-84040000D01*
X79031000Y-76253000D02*
X79031000Y-78970000D01*
X80151000Y-76955000D02*
X80151000Y-78970000D01*
X80951000Y-77908000D02*
X80951000Y-78970000D01*
X78591000Y-76096000D02*
X78591000Y-83924000D01*
X79791000Y-76672000D02*
X79791000Y-78970000D01*
X81431000Y-79062000D02*
X81431000Y-80958000D01*
X79191000Y-76324000D02*
X79191000Y-78970000D01*
X81111000Y-78197000D02*
X81111000Y-81823000D01*
X79551000Y-81050000D02*
X79551000Y-83503000D01*
X78751000Y-76147000D02*
X78751000Y-83873000D01*
X79271000Y-76363000D02*
X79271000Y-78970000D01*
X80271000Y-81050000D02*
X80271000Y-82955000D01*
X81311000Y-78664000D02*
X81311000Y-81356000D01*
X79511000Y-81050000D02*
X79511000Y-83527000D01*
X73420302Y-77295000D02*
X73420302Y-78095000D01*
X79711000Y-76618000D02*
X79711000Y-78970000D01*
X79111000Y-76288000D02*
X79111000Y-78970000D01*
X79071000Y-81050000D02*
X79071000Y-83750000D01*
X78511000Y-76074000D02*
X78511000Y-83946000D01*
X79591000Y-81050000D02*
X79591000Y-83479000D01*
X80151000Y-81050000D02*
X80151000Y-83065000D01*
X80071000Y-76886000D02*
X80071000Y-78970000D01*
X77750000Y-75942000D02*
X77750000Y-84078000D01*
X78991000Y-81050000D02*
X78991000Y-83784000D01*
X80711000Y-77556000D02*
X80711000Y-78970000D01*
X80871000Y-81050000D02*
X80871000Y-82238000D01*
X78551000Y-76085000D02*
X78551000Y-83935000D01*
X81191000Y-78365000D02*
X81191000Y-81655000D01*
X79631000Y-76566000D02*
X79631000Y-78970000D01*
X77990000Y-75968000D02*
X77990000Y-84052000D01*
X80071000Y-81050000D02*
X80071000Y-83134000D01*
X80591000Y-77406000D02*
X80591000Y-78970000D01*
X80951000Y-81050000D02*
X80951000Y-82112000D01*
X81391000Y-78912000D02*
X81391000Y-81108000D01*
X79391000Y-76426000D02*
X79391000Y-78970000D01*
X79991000Y-76821000D02*
X79991000Y-78970000D01*
X78351000Y-76034000D02*
X78351000Y-83986000D01*
X80431000Y-77226000D02*
X80431000Y-78970000D01*
X78671000Y-76121000D02*
X78671000Y-83899000D01*
X81471000Y-79242000D02*
X81471000Y-80778000D01*
X78951000Y-81050000D02*
X78951000Y-83800000D01*
X79471000Y-81050000D02*
X79471000Y-83550000D01*
X79351000Y-76404000D02*
X79351000Y-78970000D01*
X79631000Y-81050000D02*
X79631000Y-83454000D01*
X79231000Y-81050000D02*
X79231000Y-83676000D01*
X79391000Y-81050000D02*
X79391000Y-83594000D01*
X80191000Y-81050000D02*
X80191000Y-83029000D01*
X80751000Y-81050000D02*
X80751000Y-82410000D01*
X78030000Y-75973000D02*
X78030000Y-84047000D01*
X79271000Y-81050000D02*
X79271000Y-83657000D01*
X79191000Y-81050000D02*
X79191000Y-83696000D01*
X79311000Y-81050000D02*
X79311000Y-83637000D01*
X77790000Y-75945000D02*
X77790000Y-84075000D01*
X77950000Y-75962000D02*
X77950000Y-84058000D01*
X81071000Y-78120000D02*
X81071000Y-81900000D01*
X78151000Y-75993000D02*
X78151000Y-84027000D01*
X78831000Y-76175000D02*
X78831000Y-83845000D01*
X79711000Y-81050000D02*
X79711000Y-83402000D01*
X79871000Y-81050000D02*
X79871000Y-83290000D01*
X80191000Y-76991000D02*
X80191000Y-78970000D01*
X79031000Y-81050000D02*
X79031000Y-83767000D01*
X80751000Y-77610000D02*
X80751000Y-78970000D01*
X79751000Y-76645000D02*
X79751000Y-78970000D01*
X79231000Y-76344000D02*
X79231000Y-78970000D01*
X77710000Y-75939000D02*
X77710000Y-84081000D01*
X80231000Y-77027000D02*
X80231000Y-78970000D01*
X80671000Y-81050000D02*
X80671000Y-82515000D01*
X78871000Y-76189000D02*
X78871000Y-83831000D01*
X77550000Y-75931000D02*
X77550000Y-84089000D01*
X80871000Y-77782000D02*
X80871000Y-78970000D01*
X80591000Y-81050000D02*
X80591000Y-82614000D01*
X79351000Y-81050000D02*
X79351000Y-83616000D01*
X77590000Y-75933000D02*
X77590000Y-84087000D01*
X79911000Y-81050000D02*
X79911000Y-83260000D01*
X78991000Y-76236000D02*
X78991000Y-78970000D01*
X80231000Y-81050000D02*
X80231000Y-82993000D01*
X79511000Y-76493000D02*
X79511000Y-78970000D01*
X80391000Y-77184000D02*
X80391000Y-78970000D01*
X79071000Y-76270000D02*
X79071000Y-78970000D01*
X80431000Y-81050000D02*
X80431000Y-82794000D01*
X80471000Y-81050000D02*
X80471000Y-82751000D01*
X77470000Y-75930000D02*
X77470000Y-84090000D01*
X78110000Y-75986000D02*
X78110000Y-84034000D01*
X78471000Y-76063000D02*
X78471000Y-83957000D01*
X80791000Y-81050000D02*
X80791000Y-82355000D01*
X79591000Y-76541000D02*
X79591000Y-78970000D01*
X77430000Y-75930000D02*
X77430000Y-84090000D01*
X79951000Y-76790000D02*
X79951000Y-78970000D01*
X80791000Y-77665000D02*
X80791000Y-78970000D01*
X80111000Y-76920000D02*
X80111000Y-78970000D01*
X80671000Y-77505000D02*
X80671000Y-78970000D01*
X80711000Y-81050000D02*
X80711000Y-82464000D01*
X79431000Y-76448000D02*
X79431000Y-78970000D01*
X79151000Y-81050000D02*
X79151000Y-83714000D01*
X80831000Y-81050000D02*
X80831000Y-82297000D01*
X77830000Y-75949000D02*
X77830000Y-84071000D01*
X80511000Y-77313000D02*
X80511000Y-78970000D01*
X80991000Y-77976000D02*
X80991000Y-82044000D01*
X79951000Y-81050000D02*
X79951000Y-83230000D01*
X80311000Y-77103000D02*
X80311000Y-78970000D01*
X79831000Y-81050000D02*
X79831000Y-83319000D01*
X78951000Y-76220000D02*
X78951000Y-78970000D01*
X80551000Y-81050000D02*
X80551000Y-82661000D01*
X78191000Y-76000000D02*
X78191000Y-84020000D01*
X80351000Y-81050000D02*
X80351000Y-82877000D01*
X79991000Y-81050000D02*
X79991000Y-83199000D01*
X80351000Y-77143000D02*
X80351000Y-78970000D01*
X80391000Y-81050000D02*
X80391000Y-82836000D01*
X79831000Y-76701000D02*
X79831000Y-78970000D01*
X79871000Y-76730000D02*
X79871000Y-78970000D01*
X77630000Y-75934000D02*
X77630000Y-84086000D01*
X79911000Y-76760000D02*
X79911000Y-78970000D01*
X79311000Y-76383000D02*
X79311000Y-78970000D01*
X79551000Y-76517000D02*
X79551000Y-78970000D01*
X80911000Y-81050000D02*
X80911000Y-82176000D01*
X81151000Y-78279000D02*
X81151000Y-81741000D01*
X78791000Y-76160000D02*
X78791000Y-83860000D01*
X81550000Y-80010000D02*
G75*
G03*
X81550000Y-80010000I-4120000J0D01*
G01*
%TD*%
M02*
