M48
; DRILL file {KiCad (6.0.11)} date Wed Feb  8 18:49:18 2023
; FORMAT={-:-/ absolute / inch / decimal}
; #@! TF.CreationDate,2023-02-08T18:49:18+00:00
; #@! TF.GenerationSoftware,Kicad,Pcbnew,(6.0.11)
; #@! TF.FileFunction,Plated,1,2,PTH
FMAT,2
INCH
; #@! TA.AperFunction,Plated,PTH,ComponentDrill
T1C0.0315
; #@! TA.AperFunction,Plated,PTH,ComponentDrill
T2C0.0394
; #@! TA.AperFunction,Plated,PTH,ComponentDrill
T3C0.0433
; #@! TA.AperFunction,Plated,PTH,ComponentDrill
T4C0.0440
; #@! TA.AperFunction,Plated,PTH,ComponentDrill
T5C0.0512
; #@! TA.AperFunction,Plated,PTH,ComponentDrill
T6C0.0598
; #@! TA.AperFunction,Plated,PTH,ComponentDrill
T7C0.0630
; #@! TA.AperFunction,Plated,PTH,ComponentDrill
T8C0.0709
%
G90
G05
T1
X2.925Y-1.875
X2.925Y-2.0
X2.95Y-3.15
X3.1469Y-3.15
X3.325Y-1.875
X3.325Y-2.0
X4.6Y-2.95
X4.6Y-3.0992
X4.8Y-2.8
X5.0Y-2.95
X5.0Y-3.0992
X5.1504Y-2.9504
X5.1504Y-3.0504
X5.1504Y-3.1504
X5.1504Y-3.2504
X5.2Y-2.8
X5.4504Y-2.9504
X5.4504Y-3.0504
X5.4504Y-3.1504
X5.4504Y-3.2504
X5.6Y-2.9
X5.6Y-3.3
T2
X2.5774Y-1.5
X2.8726Y-1.5
T3
X3.0Y-2.9
X3.0669Y-2.9
X3.1339Y-2.9
X3.2008Y-2.9
X3.2677Y-2.9
T4
X3.0Y-2.25
X3.0Y-2.35
X3.0Y-2.45
X3.0Y-2.55
X3.3Y-2.25
X3.3Y-2.35
X3.3Y-2.45
X3.3Y-2.55
T5
X4.65Y-1.7965
X4.65Y-2.0012
X4.65Y-2.3988
X4.65Y-2.6035
T6
X2.95Y-3.65
X3.15Y-3.65
X5.1Y-2.3
X5.1Y-2.5
T7
X2.7Y-2.8
X2.7Y-3.4
T8
X2.575Y-2.3053
X2.575Y-2.525
T0
M30
